# xmcd
#
# Track frame offsets:
# 182
# 13995
# 32512
# 48557
# 69185
# 84630
# 101315
# 129292
# 148500
# 181357
# 200402
# 216677
# 238487
# 260680
#
# Disc length: 3778 seconds
#
#
# Revision: 0
# Processed by: cddbd v1.5.2PL0 Copyright (c) Steve Scherf et al.
# Submitted via: FreeRIP 2.942 
#
DISCID=cf0ec00e
DTITLE=Dana Gillespie - Andy Warhol - The Best Of The Mainman Years
DYEAR=1995
DGENRE=Blues
TTITLE0=Andy Warhol
TTITLE1=Weren't Born a Man
TTITLE2=Lavender Hill
TTITLE3=Really Love the Man
TTITLE4=Eternal Showman
TTITLE5=Never Knew
TTITLE6=Don't Mind Me
TTITLE7=Mother Don't Be Frightened
TTITLE8=Stardom Road Parts I and II
TTITLE9=Wanderlust
TTITLE10=Dizzy Heights
TTITLE11=Backed a Loser
TTITLE12=No Tail to Wag
TTITLE13=All Gone
EXTD=
EXTT0=
EXTT1=
EXTT2=
EXTT3=
EXTT4=
EXTT5=
EXTT6=
EXTT7=
EXTT8=
EXTT9=
EXTT10=
EXTT11=
EXTT12=
EXTT13=
PLAYORDER=
